<!-- Generated by IcoMoon.io -->
<svg version="1.1" xmlns="http://www.w3.org/2000/svg" width="1024" height="1024" viewBox="0 0 1024 1024">
<title></title>
<g id="icomoon-ignore">
</g>
<path d="M640 159.944q0-14.222 8.889-23.111t23.111-8.889h128q14.222 0 23.111 8.889t8.889 23.111v704q0 14.222-8.889 23.111t-23.111 8.889h-128q-14.222 0-23.111-8.889t-8.889-23.111v-704zM224 895.944q-14.222 0-23.111-8.889t-8.889-23.111v-704q0-14.222 8.889-23.111t23.111-8.889h128q14.222 0 23.111 8.889t8.889 23.111v704q0 14.222-8.889 23.111t-23.111 8.889h-128z"></path>
</svg>
